<?xml version="1.0" encoding="UTF-8"?>
<svg width="512" height="512" viewBox="0 0 512 512" fill="none" xmlns="http://www.w3.org/2000/svg">
  <circle cx="256" cy="256" r="256" fill="#1A1A1A"/>
  <path d="M256 128C176.5 128 128 176.5 128 256C128 335.5 176.5 384 256 384C335.5 384 384 335.5 384 256C384 176.5 335.5 128 256 128ZM256 352C194.1 352 160 317.9 160 256C160 194.1 194.1 160 256 160C317.9 160 352 194.1 352 256C352 317.9 317.9 352 256 352Z" fill="#10B981"/>
  <path d="M256 192C212.7 192 192 212.7 192 256C192 299.3 212.7 320 256 320C299.3 320 320 299.3 320 256C320 212.7 299.3 192 256 192ZM256 288C230.5 288 224 281.5 224 256C224 230.5 230.5 224 256 224C281.5 224 288 230.5 288 256C288 281.5 281.5 288 256 288Z" fill="#34D399"/>
</svg>